<?xml version="1.0" ?><!DOCTYPE svg  PUBLIC '-//W3C//DTD SVG 1.1//EN'  'http://www.w3.org/Graphics/SVG/1.1/DTD/svg11.dtd'><svg height="512px" style="shape-rendering:geometricPrecision; text-rendering:geometricPrecision; image-rendering:optimizeQuality; fill-rule:evenodd; clip-rule:evenodd" version="1.1" viewBox="0 0 512000 512000" width="512px" xml:space="preserve" xmlns="http://www.w3.org/2000/svg" xmlns:xlink="http://www.w3.org/1999/xlink"><defs><style type="text/css">
   <![CDATA[
    .fil0 {fill:#2B2A29}
   ]]>
  </style></defs><g id="Layer_x0020_1"><path class="fil0" d="M255999 9771c135987,0 246228,110240 246228,246228 0,135987 -110241,246228 -246228,246228 -135988,0 -246228,-110241 -246228,-246228 0,-135988 110240,-246228 246228,-246228zm-87575 176799l32405 0 0 16377 0 52303 0 1495 0 52303 0 16377 -32405 0 0 35959 54965 0 3823 0 0 26270 6469 0 17052 0 0 -26270 13525 0 0 26270 6469 0 17052 0 0 -26270c0,0 40193,-8414 52604,-42826 11843,-32832 -12927,-60123 -15227,-62561 2300,-2438 27070,-29728 15227,-62560 -12411,-34413 -52604,-42827 -52604,-42827l0 -26270 -17052 0 -6469 0 0 26270 -13525 0 0 -26270 -17052 0 -6469 0 0 26270 -3823 0 -54965 0 0 35959zm65550 139445l0 -55276 0 0c20337,0 68922,-5619 68922,25932 0,580 -17,1146 -45,1707 28,559 45,1126 45,1706 0,31550 -48585,25931 -68922,25931l0 0zm0 -140033l0 55275 0 0c20337,0 68922,5620 68922,-25932 0,-580 -17,-1146 -45,-1706 28,-559 45,-1127 45,-1707 0,-31550 -48585,-25930 -68922,-25930l0 0zm22025 -131866c111496,0 201883,90386 201883,201883 0,111496 -90386,201883 -201883,201883 -111496,0 -201883,-90386 -201883,-201883 0,-111496 90386,-201883 201883,-201883z"/></g></svg>